<svg xmlns="http://www.w3.org/2000/svg" xmlns:xlink="http://www.w3.org/1999/xlink" width="500" zoomAndPan="magnify" viewBox="0 0 375 187.499995" height="250" preserveAspectRatio="xMidYMid meet" version="1.0"><defs><g/><clipPath id="f5e0479982"><path d="M 0.5 0 L 374.5 0 L 374.5 187 L 0.5 187 Z M 0.5 0 " clip-rule="nonzero"/></clipPath><clipPath id="157e728d33"><path d="M 128.648438 117.480469 L 295.074219 117.480469 L 295.074219 155.183594 L 128.648438 155.183594 Z M 128.648438 117.480469 " clip-rule="nonzero"/></clipPath><clipPath id="124ea52005"><path d="M 145.855469 117.480469 L 277.847656 117.480469 C 282.410156 117.480469 286.785156 119.292969 290.011719 122.519531 C 293.238281 125.746094 295.050781 130.125 295.050781 134.6875 L 295.050781 137.980469 C 295.050781 142.542969 293.238281 146.921875 290.011719 150.144531 C 286.785156 153.371094 282.410156 155.183594 277.847656 155.183594 L 145.855469 155.183594 C 141.289062 155.183594 136.914062 153.371094 133.6875 150.144531 C 130.460938 146.921875 128.648438 142.542969 128.648438 137.980469 L 128.648438 134.6875 C 128.648438 130.125 130.460938 125.746094 133.6875 122.519531 C 136.914062 119.292969 141.289062 117.480469 145.855469 117.480469 Z M 145.855469 117.480469 " clip-rule="nonzero"/></clipPath><clipPath id="fcc32f93b0"><path d="M 128.664062 117.480469 L 294.511719 117.480469 L 294.511719 155.863281 L 128.664062 155.863281 Z M 128.664062 117.480469 " clip-rule="nonzero"/></clipPath><clipPath id="d05fe2d3cb"><path d="M 145.863281 117.480469 L 277.832031 117.480469 C 282.394531 117.480469 286.769531 119.292969 289.996094 122.519531 C 293.222656 125.746094 295.035156 130.121094 295.035156 134.683594 L 295.035156 137.976562 C 295.035156 142.539062 293.222656 146.914062 289.996094 150.140625 C 286.769531 153.367188 282.394531 155.179688 277.832031 155.179688 L 145.863281 155.179688 C 141.304688 155.179688 136.929688 153.367188 133.703125 150.140625 C 130.476562 146.914062 128.664062 142.539062 128.664062 137.976562 L 128.664062 134.683594 C 128.664062 130.121094 130.476562 125.746094 133.703125 122.519531 C 136.929688 119.292969 141.304688 117.480469 145.863281 117.480469 Z M 145.863281 117.480469 " clip-rule="nonzero"/></clipPath></defs><g clip-path="url(#f5e0479982)"><path fill="#ffffff" d="M 0.5 0 L 374.5 0 L 374.5 187 L 0.5 187 Z M 0.5 0 " fill-opacity="1" fill-rule="nonzero"/><path fill="#e3e3db" d="M 0.5 0 L 374.5 0 L 374.5 187 L 0.5 187 Z M 0.5 0 " fill-opacity="1" fill-rule="nonzero"/></g><g fill="#0f0f0e" fill-opacity="1"><g transform="translate(68.729011, 109.401607)"><g><path d="M 4.582031 16.25 L 17.082031 16.25 L 17.082031 -2.917969 C 20.832031 0.625 24.269531 0.832031 27.1875 0.832031 C 34.480469 0.832031 40.519531 -5.105469 40.519531 -12.1875 L 40.519531 -35.730469 C 40.519531 -42.8125 34.480469 -48.644531 27.1875 -48.644531 C 24.269531 -48.644531 19.480469 -48.644531 16.355469 -44.0625 L 15 -47.8125 L 4.582031 -47.8125 Z M 22.605469 -9.582031 C 19.375 -9.582031 17.082031 -11.980469 17.082031 -15.105469 L 17.082031 -32.8125 C 17.082031 -35.730469 19.375 -38.226562 22.605469 -38.226562 C 25.417969 -38.226562 27.917969 -35.730469 27.917969 -32.8125 L 27.917969 -15.105469 C 27.917969 -11.980469 25.417969 -9.582031 22.605469 -9.582031 Z M 22.605469 -9.582031 "/></g></g></g><g fill="#0f0f0e" fill-opacity="1"><g transform="translate(113.308325, 109.401607)"><g><path d="M 21.875 0.625 C 31.5625 0.625 39.6875 -5.9375 39.6875 -15.519531 L 39.6875 -31.667969 C 39.6875 -41.351562 32.1875 -48.644531 21.875 -48.644531 C 11.5625 -48.644531 4.0625 -41.351562 4.0625 -31.667969 L 4.0625 -15.519531 C 4.0625 -5.9375 12.1875 0.625 21.875 0.625 Z M 21.875 -9.6875 C 18.75 -9.6875 16.667969 -12.082031 16.667969 -15.105469 L 16.667969 -32.8125 C 16.667969 -35.832031 18.75 -38.226562 21.875 -38.226562 C 25 -38.226562 27.082031 -35.832031 27.082031 -32.8125 L 27.082031 -15.105469 C 27.082031 -12.082031 25 -9.6875 21.875 -9.6875 Z M 21.875 -9.6875 "/></g></g></g><g fill="#0f0f0e" fill-opacity="1"><g transform="translate(157.054377, 109.401607)"><g><path d="M 19.0625 0.730469 C 32.082031 0.730469 35.730469 -7.8125 35.730469 -12.8125 C 35.730469 -20.3125 30.207031 -23.4375 25.207031 -26.355469 C 20.105469 -29.375 15.417969 -31.457031 15.417969 -34.269531 C 15.417969 -38.226562 19.582031 -38.226562 19.582031 -38.226562 C 21.980469 -38.226562 24.480469 -36.25 25.207031 -32.917969 L 35.3125 -32.917969 C 34.792969 -43.957031 26.144531 -48.539062 18.957031 -48.539062 C 11.5625 -48.539062 2.917969 -44.6875 2.917969 -34.167969 C 2.917969 -24.792969 11.875 -20.730469 16.769531 -18.542969 C 20.207031 -16.980469 23.230469 -15.519531 23.230469 -12.707031 C 23.230469 -10 21.25 -9.375 18.230469 -9.375 C 15.519531 -9.375 13.019531 -10.9375 12.394531 -14.480469 L 2.292969 -14.480469 C 2.605469 -7.917969 7.1875 0.730469 19.0625 0.730469 Z M 19.0625 0.730469 "/></g></g></g><g fill="#0f0f0e" fill-opacity="1"><g transform="translate(194.655137, 109.401607)"><g><path d="M 4.582031 -52.707031 L 17.082031 -52.707031 L 17.082031 -66.144531 L 4.582031 -66.144531 Z M 4.582031 0 L 17.082031 0 L 17.082031 -47.914062 L 4.582031 -47.914062 Z M 4.582031 0 "/></g></g></g><g fill="#0f0f0e" fill-opacity="1"><g transform="translate(216.319857, 109.401607)"><g><path d="M 27.1875 0.832031 C 34.480469 0.832031 40.519531 -5 40.519531 -12.082031 L 40.519531 -35.625 C 40.519531 -42.707031 34.480469 -48.644531 27.1875 -48.644531 C 24.269531 -48.644531 19.894531 -48.644531 17.082031 -44.894531 L 17.082031 -64.375 L 4.582031 -64.375 L 4.582031 0 L 15 0 L 16.144531 -3.332031 C 18.957031 0.417969 24.269531 0.832031 27.1875 0.832031 Z M 22.605469 -9.582031 C 19.375 -9.582031 17.082031 -12.082031 17.082031 -15 L 17.082031 -32.707031 C 17.082031 -35.832031 19.375 -38.226562 22.605469 -38.226562 C 25.417969 -38.226562 27.917969 -35.832031 27.917969 -32.707031 L 27.917969 -15 C 27.917969 -12.082031 25.417969 -9.582031 22.605469 -9.582031 Z M 22.605469 -9.582031 "/></g></g></g><g fill="#0f0f0e" fill-opacity="1"><g transform="translate(260.899171, 109.401607)"><g><path d="M 4.582031 0 L 17.082031 0 L 17.082031 -64.375 L 4.582031 -64.375 Z M 4.582031 0 "/></g></g></g><g fill="#0f0f0e" fill-opacity="1"><g transform="translate(282.563891, 109.401607)"><g><path d="M 21.875 0.730469 C 30.730469 0.730469 38.539062 -4.375 39.375 -14.269531 L 27.5 -14.269531 C 26.769531 -11.144531 24.375 -9.6875 21.875 -9.6875 C 18.644531 -9.6875 16.5625 -12.082031 16.5625 -15.105469 L 16.5625 -20.105469 L 39.476562 -20.105469 L 39.476562 -31.667969 C 39.476562 -41.351562 32.1875 -48.644531 21.875 -48.644531 C 11.457031 -48.644531 4.0625 -41.351562 4.0625 -31.667969 L 4.0625 -15.417969 C 4.0625 -5.832031 12.292969 0.730469 21.875 0.730469 Z M 16.5625 -29.480469 L 16.5625 -32.8125 C 16.5625 -35.832031 18.542969 -38.226562 21.769531 -38.226562 C 24.894531 -38.226562 26.980469 -35.832031 26.980469 -32.8125 L 26.980469 -29.480469 Z M 16.5625 -29.480469 "/></g></g></g><g fill="#0f0f0e" fill-opacity="1"><g transform="translate(326.101616, 109.401607)"><g><path d="M 4.582031 0 L 16.042969 0 L 16.042969 -11.457031 L 4.582031 -11.457031 Z M 4.582031 0 "/></g></g></g><g fill="#000000" fill-opacity="1"><g transform="translate(23.155299, 110.224014)"><g><path d="M 2.453125 -17.03125 L 2.453125 -27.0625 L 24.015625 -27.0625 L 24.015625 -17.03125 Z M 2.453125 -17.03125 "/></g></g></g><g clip-path="url(#157e728d33)"><g clip-path="url(#124ea52005)"><path fill="#e3e3db" d="M 128.648438 117.480469 L 295.074219 117.480469 L 295.074219 155.183594 L 128.648438 155.183594 Z M 128.648438 117.480469 " fill-opacity="1" fill-rule="nonzero"/></g></g><g clip-path="url(#fcc32f93b0)"><g clip-path="url(#d05fe2d3cb)"><path stroke-linecap="butt" transform="matrix(1.37077, 0, 0, 1.37077, 128.664251, 117.48175)" fill="none" stroke-linejoin="miter" d="M 12.546983 -0.000934909 L 108.820413 -0.000934909 C 112.148834 -0.000934909 115.340471 1.321314 117.694302 3.675146 C 120.048134 6.028978 121.370383 9.220614 121.370383 12.549035 L 121.370383 14.951311 C 121.370383 18.279732 120.048134 21.471369 117.694302 23.8252 C 115.340471 26.179032 112.148834 27.501281 108.820413 27.501281 L 12.546983 27.501281 C 9.221412 27.501281 6.029776 26.179032 3.675944 23.8252 C 1.322112 21.471369 -0.0001374 18.279732 -0.0001374 14.951311 L -0.0001374 12.549035 C -0.0001374 9.220614 1.322112 6.028978 3.675944 3.675146 C 6.029776 1.321314 9.221412 -0.000934909 12.546983 -0.000934909 Z M 12.546983 -0.000934909 " stroke="#000000" stroke-width="1.091365" stroke-opacity="1" stroke-miterlimit="4"/></g></g><g fill="#b16364" fill-opacity="1"><g transform="translate(170.410267, 142.754319)"><g><path d="M 0.644531 0 L 3.242188 0 L 3.886719 -2.980469 L 9.289062 -2.980469 L 9.960938 0 L 12.5625 0 L 8.472656 -18.050781 L 4.730469 -18.050781 Z M 4.382812 -5.230469 L 6.601562 -15.160156 L 8.792969 -5.230469 Z M 4.382812 -5.230469 "/></g></g></g><g fill="#b16364" fill-opacity="1"><g transform="translate(183.605624, 142.754319)"><g><path d="M 6.484375 0.144531 C 7.59375 0.144531 8.648438 -0.0859375 9.464844 -1.023438 L 9.464844 0 L 11.597656 0 L 11.597656 -9.699219 L 7.332031 -9.699219 L 7.332031 -7.566406 L 9.054688 -7.566406 L 9.054688 -4.558594 C 9.054688 -2.660156 7.652344 -2.101562 6.484375 -2.101562 C 5.230469 -2.101562 3.914062 -2.863281 3.914062 -4.820312 L 3.914062 -13.292969 C 3.914062 -15.25 5.230469 -16.007812 6.484375 -16.007812 C 7.652344 -16.007812 9.054688 -15.363281 9.054688 -13.464844 L 9.054688 -13.144531 L 11.597656 -13.144531 L 11.597656 -13.464844 C 11.597656 -16.183594 9.230469 -18.257812 6.484375 -18.257812 C 3.503906 -18.257812 1.371094 -16.210938 1.371094 -13.496094 L 1.371094 -4.617188 C 1.371094 -1.898438 3.503906 0.144531 6.484375 0.144531 Z M 6.484375 0.144531 "/></g></g></g><g fill="#b16364" fill-opacity="1"><g transform="translate(196.713405, 142.754319)"><g><path d="M 1.519531 0 L 9.523438 0 L 9.523438 -2.25 L 4.058594 -2.25 L 4.058594 -7.304688 L 8.03125 -7.304688 L 8.03125 -9.550781 L 4.058594 -9.550781 L 4.058594 -15.804688 L 9.523438 -15.804688 L 9.523438 -18.050781 L 1.519531 -18.050781 Z M 1.519531 0 "/></g></g></g><g fill="#b16364" fill-opacity="1"><g transform="translate(207.456536, 142.754319)"><g><path d="M 1.519531 0 L 4.058594 0 L 4.058594 -11.128906 L 9.375 0 L 11.597656 0 L 11.597656 -18.050781 L 9.054688 -18.050781 L 9.054688 -6.660156 L 3.769531 -18.050781 L 1.519531 -18.050781 Z M 1.519531 0 "/></g></g></g><g fill="#b16364" fill-opacity="1"><g transform="translate(220.564317, 142.754319)"><g><path d="M 6.484375 0.144531 C 9.230469 0.144531 11.597656 -1.929688 11.597656 -4.644531 L 11.597656 -4.964844 L 9.054688 -4.964844 L 9.054688 -4.644531 C 9.054688 -2.746094 7.652344 -2.101562 6.484375 -2.101562 C 5.230469 -2.101562 3.914062 -2.863281 3.914062 -4.820312 L 3.914062 -13.292969 C 3.914062 -15.25 5.230469 -16.007812 6.484375 -16.007812 C 7.652344 -16.007812 9.054688 -15.363281 9.054688 -13.464844 L 9.054688 -13.144531 L 11.597656 -13.144531 L 11.597656 -13.464844 C 11.597656 -16.183594 9.230469 -18.257812 6.484375 -18.257812 C 3.503906 -18.257812 1.371094 -16.210938 1.371094 -13.496094 L 1.371094 -4.617188 C 1.371094 -1.898438 3.503906 0.144531 6.484375 0.144531 Z M 6.484375 0.144531 "/></g></g></g><g fill="#b16364" fill-opacity="1"><g transform="translate(232.796291, 142.754319)"><g><path d="M 1.519531 0 L 4.058594 0 L 4.058594 -18.050781 L 1.519531 -18.050781 Z M 1.519531 0 "/></g></g></g><g fill="#b16364" fill-opacity="1"><g transform="translate(238.372198, 142.754319)"><g><path d="M 0.644531 0 L 3.242188 0 L 3.886719 -2.980469 L 9.289062 -2.980469 L 9.960938 0 L 12.5625 0 L 8.472656 -18.050781 L 4.730469 -18.050781 Z M 4.382812 -5.230469 L 6.601562 -15.160156 L 8.792969 -5.230469 Z M 4.382812 -5.230469 "/></g></g></g></svg>