<svg xmlns="http://www.w3.org/2000/svg" xmlns:xlink="http://www.w3.org/1999/xlink" width="500" zoomAndPan="magnify" viewBox="0 0 375 374.999991" height="500" preserveAspectRatio="xMidYMid meet" version="1.0"><defs><g/><clipPath id="e0b0cb6016"><path d="M 128.492188 211.546875 L 295.363281 211.546875 L 295.363281 249.347656 L 128.492188 249.347656 Z M 128.492188 211.546875 " clip-rule="nonzero"/></clipPath><clipPath id="b0f066055b"><path d="M 145.742188 211.546875 L 278.089844 211.546875 C 282.664062 211.546875 287.050781 213.363281 290.285156 216.597656 C 293.519531 219.832031 295.339844 224.21875 295.339844 228.796875 L 295.339844 232.097656 C 295.339844 236.675781 293.519531 241.0625 290.285156 244.296875 C 287.050781 247.53125 282.664062 249.347656 278.089844 249.347656 L 145.742188 249.347656 C 141.167969 249.347656 136.78125 247.53125 133.542969 244.296875 C 130.308594 241.0625 128.492188 236.675781 128.492188 232.097656 L 128.492188 228.796875 C 128.492188 224.21875 130.308594 219.832031 133.542969 216.597656 C 136.78125 213.363281 141.167969 211.546875 145.742188 211.546875 Z M 145.742188 211.546875 " clip-rule="nonzero"/></clipPath><clipPath id="8bb78a7e92"><path d="M 128.507812 211.546875 L 294.796875 211.546875 L 294.796875 250 L 128.507812 250 Z M 128.507812 211.546875 " clip-rule="nonzero"/></clipPath><clipPath id="c23710668c"><path d="M 145.753906 211.546875 L 278.074219 211.546875 C 282.648438 211.546875 287.035156 213.363281 290.269531 216.597656 C 293.503906 219.832031 295.320312 224.21875 295.320312 228.792969 L 295.320312 232.09375 C 295.320312 236.667969 293.503906 241.054688 290.269531 244.289062 C 287.035156 247.523438 282.648438 249.339844 278.074219 249.339844 L 145.753906 249.339844 C 141.179688 249.339844 136.792969 247.523438 133.558594 244.289062 C 130.324219 241.054688 128.507812 236.667969 128.507812 232.09375 L 128.507812 228.792969 C 128.507812 224.21875 130.324219 219.832031 133.558594 216.597656 C 136.792969 213.363281 141.179688 211.546875 145.753906 211.546875 Z M 145.753906 211.546875 " clip-rule="nonzero"/></clipPath></defs><rect x="-37.5" width="450" fill="#ffffff" y="-37.499999" height="449.999989" fill-opacity="1"/><rect x="-37.5" width="450" fill="#e3e3db" y="-37.499999" height="449.999989" fill-opacity="1"/><g fill="#0f0f0e" fill-opacity="1"><g transform="translate(68.412288, 203.443345)"><g><path d="M 4.59375 16.292969 L 17.128906 16.292969 L 17.128906 -2.925781 C 20.886719 0.625 24.335938 0.835938 27.257812 0.835938 C 34.570312 0.835938 40.628906 -5.117188 40.628906 -12.21875 L 40.628906 -35.824219 C 40.628906 -42.925781 34.570312 -48.773438 27.257812 -48.773438 C 24.335938 -48.773438 19.53125 -48.773438 16.398438 -44.179688 L 15.039062 -47.9375 L 4.59375 -47.9375 Z M 22.664062 -9.609375 C 19.425781 -9.609375 17.128906 -12.011719 17.128906 -15.144531 L 17.128906 -32.898438 C 17.128906 -35.824219 19.425781 -38.332031 22.664062 -38.332031 C 25.484375 -38.332031 27.992188 -35.824219 27.992188 -32.898438 L 27.992188 -15.144531 C 27.992188 -12.011719 25.484375 -9.609375 22.664062 -9.609375 Z M 22.664062 -9.609375 "/></g></g></g><g fill="#0f0f0e" fill-opacity="1"><g transform="translate(113.11048, 203.443345)"><g><path d="M 21.933594 0.625 C 31.644531 0.625 39.792969 -5.953125 39.792969 -15.5625 L 39.792969 -31.75 C 39.792969 -41.464844 32.273438 -48.773438 21.933594 -48.773438 C 11.59375 -48.773438 4.074219 -41.464844 4.074219 -31.75 L 4.074219 -15.5625 C 4.074219 -5.953125 12.21875 0.625 21.933594 0.625 Z M 21.933594 -9.714844 C 18.800781 -9.714844 16.710938 -12.117188 16.710938 -15.144531 L 16.710938 -32.898438 C 16.710938 -35.929688 18.800781 -38.332031 21.933594 -38.332031 C 25.066406 -38.332031 27.15625 -35.929688 27.15625 -32.898438 L 27.15625 -15.144531 C 27.15625 -12.117188 25.066406 -9.714844 21.933594 -9.714844 Z M 21.933594 -9.714844 "/></g></g></g><g fill="#0f0f0e" fill-opacity="1"><g transform="translate(156.973188, 203.443345)"><g><path d="M 19.113281 0.730469 C 32.167969 0.730469 35.824219 -7.832031 35.824219 -12.847656 C 35.824219 -20.367188 30.289062 -23.5 25.273438 -26.425781 C 20.15625 -29.453125 15.457031 -31.542969 15.457031 -34.363281 C 15.457031 -38.332031 19.636719 -38.332031 19.636719 -38.332031 C 22.039062 -38.332031 24.542969 -36.347656 25.273438 -33.003906 L 35.40625 -33.003906 C 34.882812 -44.074219 26.214844 -48.671875 19.007812 -48.671875 C 11.59375 -48.671875 2.925781 -44.804688 2.925781 -34.257812 C 2.925781 -24.855469 11.90625 -20.785156 16.816406 -18.589844 C 20.261719 -17.023438 23.289062 -15.5625 23.289062 -12.742188 C 23.289062 -10.027344 21.304688 -9.398438 18.277344 -9.398438 C 15.5625 -9.398438 13.054688 -10.964844 12.429688 -14.515625 L 2.296875 -14.515625 C 2.609375 -7.9375 7.207031 0.730469 19.113281 0.730469 Z M 19.113281 0.730469 "/></g></g></g><g fill="#0f0f0e" fill-opacity="1"><g transform="translate(194.674217, 203.443345)"><g><path d="M 4.59375 -52.847656 L 17.128906 -52.847656 L 17.128906 -66.320312 L 4.59375 -66.320312 Z M 4.59375 0 L 17.128906 0 L 17.128906 -48.042969 L 4.59375 -48.042969 Z M 4.59375 0 "/></g></g></g><g fill="#0f0f0e" fill-opacity="1"><g transform="translate(216.39671, 203.443345)"><g><path d="M 27.257812 0.835938 C 34.570312 0.835938 40.628906 -5.011719 40.628906 -12.117188 L 40.628906 -35.71875 C 40.628906 -42.820312 34.570312 -48.773438 27.257812 -48.773438 C 24.335938 -48.773438 19.949219 -48.773438 17.128906 -45.015625 L 17.128906 -64.546875 L 4.59375 -64.546875 L 4.59375 0 L 15.039062 0 L 16.1875 -3.34375 C 19.007812 0.417969 24.335938 0.835938 27.257812 0.835938 Z M 22.664062 -9.609375 C 19.425781 -9.609375 17.128906 -12.117188 17.128906 -15.039062 L 17.128906 -32.796875 C 17.128906 -35.929688 19.425781 -38.332031 22.664062 -38.332031 C 25.484375 -38.332031 27.992188 -35.929688 27.992188 -32.796875 L 27.992188 -15.039062 C 27.992188 -12.117188 25.484375 -9.609375 22.664062 -9.609375 Z M 22.664062 -9.609375 "/></g></g></g><g fill="#0f0f0e" fill-opacity="1"><g transform="translate(261.094902, 203.443345)"><g><path d="M 4.59375 0 L 17.128906 0 L 17.128906 -64.546875 L 4.59375 -64.546875 Z M 4.59375 0 "/></g></g></g><g fill="#0f0f0e" fill-opacity="1"><g transform="translate(282.817395, 203.443345)"><g><path d="M 21.933594 0.730469 C 30.8125 0.730469 38.644531 -4.386719 39.480469 -14.308594 L 27.574219 -14.308594 C 26.839844 -11.175781 24.441406 -9.714844 21.933594 -9.714844 C 18.695312 -9.714844 16.605469 -12.117188 16.605469 -15.144531 L 16.605469 -20.15625 L 39.582031 -20.15625 L 39.582031 -31.75 C 39.582031 -41.464844 32.273438 -48.773438 21.933594 -48.773438 C 11.488281 -48.773438 4.074219 -41.464844 4.074219 -31.75 L 4.074219 -15.457031 C 4.074219 -5.847656 12.324219 0.730469 21.933594 0.730469 Z M 16.605469 -29.558594 L 16.605469 -32.898438 C 16.605469 -35.929688 18.589844 -38.332031 21.828125 -38.332031 C 24.960938 -38.332031 27.050781 -35.929688 27.050781 -32.898438 L 27.050781 -29.558594 Z M 16.605469 -29.558594 "/></g></g></g><g fill="#0f0f0e" fill-opacity="1"><g transform="translate(326.471221, 203.443345)"><g><path d="M 4.59375 0 L 16.085938 0 L 16.085938 -11.488281 L 4.59375 -11.488281 Z M 4.59375 0 "/></g></g></g><g fill="#000000" fill-opacity="1"><g transform="translate(22.717045, 204.267936)"><g><path d="M 2.453125 -17.078125 L 2.453125 -27.140625 L 24.078125 -27.140625 L 24.078125 -17.078125 Z M 2.453125 -17.078125 "/></g></g></g><g clip-path="url(#e0b0cb6016)"><g clip-path="url(#b0f066055b)"><path fill="#e3e3db" d="M 128.492188 211.546875 L 295.363281 211.546875 L 295.363281 249.347656 L 128.492188 249.347656 Z M 128.492188 211.546875 " fill-opacity="1" fill-rule="nonzero"/></g></g><g clip-path="url(#8bb78a7e92)"><g clip-path="url(#c23710668c)"><path stroke-linecap="butt" transform="matrix(1.374426, 0, 0, 1.374426, 128.507355, 211.545029)" fill="none" stroke-linejoin="miter" d="M 12.548188 0.00134288 L 108.821361 0.00134288 C 112.149455 0.00134288 115.34113 1.322918 117.694385 3.676173 C 120.047641 6.029429 121.369216 9.221104 121.369216 12.549198 L 121.369216 14.95077 C 121.369216 18.278865 120.047641 21.470539 117.694385 23.823795 C 115.34113 26.17705 112.149455 27.498625 108.821361 27.498625 L 12.548188 27.498625 C 9.220093 27.498625 6.028419 26.17705 3.675163 23.823795 C 1.321907 21.470539 0.000332676 18.278865 0.000332676 14.95077 L 0.000332676 12.549198 C 0.000332676 9.221104 1.321907 6.029429 3.675163 3.676173 C 6.028419 1.322918 9.220093 0.00134288 12.548188 0.00134288 Z M 12.548188 0.00134288 " stroke="#000000" stroke-width="1.091365" stroke-opacity="1" stroke-miterlimit="4"/></g></g><g fill="#b16364" fill-opacity="1"><g transform="translate(170.364694, 236.885006)"><g><path d="M 0.644531 0 L 3.25 0 L 3.894531 -2.988281 L 9.3125 -2.988281 L 9.988281 0 L 12.59375 0 L 8.492188 -18.101562 L 4.746094 -18.101562 Z M 4.394531 -5.242188 L 6.621094 -15.199219 L 8.816406 -5.242188 Z M 4.394531 -5.242188 "/></g></g></g><g fill="#b16364" fill-opacity="1"><g transform="translate(183.595239, 236.885006)"><g><path d="M 6.503906 0.144531 C 7.613281 0.144531 8.667969 -0.0859375 9.488281 -1.023438 L 9.488281 0 L 11.628906 0 L 11.628906 -9.722656 L 7.351562 -9.722656 L 7.351562 -7.585938 L 9.078125 -7.585938 L 9.078125 -4.570312 C 9.078125 -2.664062 7.671875 -2.109375 6.503906 -2.109375 C 5.242188 -2.109375 3.925781 -2.871094 3.925781 -4.832031 L 3.925781 -13.328125 C 3.925781 -15.289062 5.242188 -16.050781 6.503906 -16.050781 C 7.671875 -16.050781 9.078125 -15.40625 9.078125 -13.503906 L 9.078125 -13.179688 L 11.628906 -13.179688 L 11.628906 -13.503906 C 11.628906 -16.226562 9.253906 -18.304688 6.503906 -18.304688 C 3.515625 -18.304688 1.375 -16.253906 1.375 -13.53125 L 1.375 -4.628906 C 1.375 -1.902344 3.515625 0.144531 6.503906 0.144531 Z M 6.503906 0.144531 "/></g></g></g><g fill="#b16364" fill-opacity="1"><g transform="translate(196.737974, 236.885006)"><g><path d="M 1.523438 0 L 9.546875 0 L 9.546875 -2.253906 L 4.070312 -2.253906 L 4.070312 -7.320312 L 8.054688 -7.320312 L 8.054688 -9.578125 L 4.070312 -9.578125 L 4.070312 -15.84375 L 9.546875 -15.84375 L 9.546875 -18.101562 L 1.523438 -18.101562 Z M 1.523438 0 "/></g></g></g><g fill="#b16364" fill-opacity="1"><g transform="translate(207.509754, 236.885006)"><g><path d="M 1.523438 0 L 4.070312 0 L 4.070312 -11.160156 L 9.402344 0 L 11.628906 0 L 11.628906 -18.101562 L 9.078125 -18.101562 L 9.078125 -6.679688 L 3.777344 -18.101562 L 1.523438 -18.101562 Z M 1.523438 0 "/></g></g></g><g fill="#b16364" fill-opacity="1"><g transform="translate(220.652489, 236.885006)"><g><path d="M 6.503906 0.144531 C 9.253906 0.144531 11.628906 -1.933594 11.628906 -4.65625 L 11.628906 -4.980469 L 9.078125 -4.980469 L 9.078125 -4.65625 C 9.078125 -2.753906 7.671875 -2.109375 6.503906 -2.109375 C 5.242188 -2.109375 3.925781 -2.871094 3.925781 -4.832031 L 3.925781 -13.328125 C 3.925781 -15.289062 5.242188 -16.050781 6.503906 -16.050781 C 7.671875 -16.050781 9.078125 -15.40625 9.078125 -13.503906 L 9.078125 -13.179688 L 11.628906 -13.179688 L 11.628906 -13.503906 C 11.628906 -16.226562 9.253906 -18.304688 6.503906 -18.304688 C 3.515625 -18.304688 1.375 -16.253906 1.375 -13.53125 L 1.375 -4.628906 C 1.375 -1.902344 3.515625 0.144531 6.503906 0.144531 Z M 6.503906 0.144531 "/></g></g></g><g fill="#b16364" fill-opacity="1"><g transform="translate(232.917081, 236.885006)"><g><path d="M 1.523438 0 L 4.070312 0 L 4.070312 -18.101562 L 1.523438 -18.101562 Z M 1.523438 0 "/></g></g></g><g fill="#b16364" fill-opacity="1"><g transform="translate(238.507858, 236.885006)"><g><path d="M 0.644531 0 L 3.25 0 L 3.894531 -2.988281 L 9.3125 -2.988281 L 9.988281 0 L 12.59375 0 L 8.492188 -18.101562 L 4.746094 -18.101562 Z M 4.394531 -5.242188 L 6.621094 -15.199219 L 8.816406 -5.242188 Z M 4.394531 -5.242188 "/></g></g></g></svg>